<?xml version="1.0" encoding="utf-8"?>
<!DOCTYPE svg PUBLIC "-//W3C//DTD SVG 1.0//EN" "http://www.w3.org/TR/2001/REC-SVG-20010904/DTD/svg10.dtd">
<svg version="1.0" xmlns="http://www.w3.org/2000/svg" width="3000px" height="2386px" viewBox="0 0 3000 2386" preserveAspectRatio="xMidYMid meet">
 <g fill="#ffffff">
  <path d="M0 1193 l0 -1193 1500 0 1500 0 0 1193 0 1193 -1500 0 -1500 0 0 -1193z"/>
 </g>
 <g fill="#000000">
  <path d="M1482 2347.9 c-6.9 -0.4 -20.8 -1.7 -31 -2.8 -10.2 -1.1 -27.7 -2.8 -39 -3.6 -34.5 -2.6 -70.4 -7 -82.2 -10.1 -13.4 -3.4 -22.8 -10.2 -26.7 -19.3 -4.7 -11 -5.2 -30.3 -1.1 -41.3 2.8 -7.5 8.9 -13.1 16.7 -15.4 7.6 -2.2 18.8 -1.6 52.3 3.1 14 1.9 40.6 5 59 6.7 32.2 3.2 35.1 3.3 77 3.2 38 0 47.7 -0.4 77 -2.8 34 -2.7 40 -3.5 64 -8 7.4 -1.3 27 -4.5 43.6 -7 34.8 -5.2 49.4 -8.2 68.3 -13.7 7.5 -2.2 24.4 -7.1 37.6 -10.9 33.8 -9.7 56.8 -17.8 100 -35.2 31.3 -12.6 72.6 -32.6 96 -46.4 7.2 -4.2 22 -12.8 32.9 -19.1 52 -30 101 -64.6 146.6 -103.7 17.1 -14.6 91.8 -89.5 107.9 -108.1 49.3 -57.2 85.1 -107.2 110.6 -154.5 4.2 -8 11.8 -21.7 16.8 -30.5 15 -26.5 41.4 -83.9 53.7 -117 25.6 -68.9 46.3 -145.1 55.4 -204.5 3.6 -23.1 8.5 -67.9 9.6 -87.8 1.2 -20.6 3.1 -601.1 2.7 -831.2 -0.2 -131.9 -0.5 -168.3 -1.5 -171.2 -0.7 -2 -2.7 -5.8 -4.5 -8.5 -3.6 -5.4 -10.6 -9.5 -19.7 -11.5 -4.3 -1 -229.1 -1.2 -1028.5 -1.3 -817.1 0 -1024.9 -0.3 -1032.5 -1.3 -14.2 -1.8 -18.6 -3.6 -25 -10.1 -7.6 -7.6 -9.5 -13.5 -9.5 -29.1 0 -15 1.8 -20.4 9 -27.6 7.8 -7.9 13.6 -9.4 39.5 -10.5 26.7 -1.1 2079.3 -1.1 2105.5 0.1 22.1 0.9 27 2 34.5 7.4 2.7 1.9 5.7 5.4 7.3 8.5 6.3 11.5 5.8 -25.5 6.8 498.6 1.1 541.9 0.9 564.7 -5.2 628 -2.2 23.3 -7.6 62.7 -11.4 83.7 -2.9 16 -14.8 67 -20.5 87.8 -12.9 47.3 -30.4 99.6 -43.5 129.5 -29.5 67.5 -44 96.1 -76.5 150.4 -18 30.2 -25.5 41.6 -48.9 74.1 -40 55.7 -67.1 87.2 -123 143 -45.4 45.4 -84.6 78.6 -135.6 114.9 -39.1 27.9 -57.1 39.2 -107 67.1 -64.2 35.9 -95.7 50.1 -169.5 76.3 -39 13.8 -46.7 16.1 -90 27.2 -65.6 16.7 -87.1 20.3 -157.5 26.5 -18.7 1.6 -41.4 3.8 -50.5 5 -30.7 3.7 -60.7 4.7 -90 2.9z"/>
  <path d="M1203.1 2302.5 c-18.6 -4.2 -29.2 -13.7 -33.8 -30.6 -1.7 -6.1 -1.8 -42.1 -1.5 -758.4 0.1 -413.6 0.7 -758.5 1.1 -766.5 1.3 -21.7 5.2 -30 16.9 -35.7 5.3 -2.6 6.6 -2.8 17.7 -2.8 10.5 0 12.7 0.3 17.2 2.4 10.9 4.9 16.2 14.2 18.3 31.7 1.5 11.9 1.5 1487.5 0 1520.1 -0.9 22.1 -2 26.5 -7.5 33.1 -5.9 6.9 -16.5 9.4 -28.4 6.7z"/>
  <path d="M1079.3 2258 c-13.1 -4.7 -23.7 -12.2 -29.1 -20.7 -4.1 -6.6 -6.1 -13.7 -7.2 -27.2 -1.3 -14.8 -2.3 -1434.7 -1 -1458.1 1.1 -21.4 3.1 -28.2 10.5 -35.6 6.7 -6.8 12.7 -8.9 25.5 -8.9 11.9 0 19.3 2.3 25.6 7.8 5.3 4.7 7.9 9.5 10.2 18.6 1.5 6.1 1.7 63.6 1.9 737.1 0.1 434.8 -0.1 738 -0.7 749 -1.2 25.1 -3.8 32.8 -12.5 37.7 -5.1 2.9 -15.6 3 -23.2 0.3z"/>
  <path d="M959.9 2197.5 c-15.5 -5.7 -30.5 -17.7 -36.7 -29.3 -5.3 -9.9 -6.1 -16.2 -6.7 -50.2 -0.9 -54.1 -1.3 -1351 -0.4 -1366.5 0.4 -8.3 1.5 -17.4 2.4 -20.5 3.4 -11.2 10.2 -18.6 19.8 -21.5 16.1 -4.8 34.7 -1.1 43.1 8.7 5.5 6.3 7.6 14.3 8.6 32 1.4 23.2 2.5 1382.6 1.2 1407.3 -1.1 20.9 -2.4 27.5 -6.4 33.6 -4.6 6.9 -15.8 9.8 -24.9 6.4z"/>
  <path d="M831.7 2109 c-7.4 -3.7 -21.3 -14.6 -26.6 -20.7 -5.7 -6.6 -10.8 -17.2 -12.9 -26.8 -1.6 -7.5 -1.7 -45 -1.4 -648.5 0.1 -352.3 0.5 -648.5 0.8 -658.4 0.4 -9.8 1.2 -20.2 1.9 -23.1 3.6 -15.7 15 -23.6 34 -23.6 12 0 19.1 2.5 25.6 9 5.6 5.6 8.4 12.5 10.1 25.3 1.9 13.5 1.8 1331.9 0 1345.3 -1.5 10.9 -5.2 19 -10.1 22.3 -5.1 3.4 -13.8 3.1 -21.4 -0.8z"/>
  <path d="M711.3 1998 c-5 -2.2 -19.2 -15.6 -27.6 -26 -7.4 -9.2 -13.1 -21 -15.1 -31 -0.8 -4.5 -1.7 -17.3 -2 -32 -1.1 -43.9 -0.9 -1142.1 0.2 -1160 1.1 -18.4 3 -25.5 8.5 -31.6 6.5 -7.5 20.6 -11.5 33.3 -9.5 12.6 1.9 20.3 7.8 24.4 18.7 1.7 4.7 2.4 9.5 3.1 22.9 0.6 10.4 0.8 251.3 0.6 622 -0.2 534.2 -0.4 605.7 -1.8 611 -3.7 15.1 -12.3 20.7 -23.6 15.5z"/>
  <path d="M1826.6 1935.9 c-12.7 -1.7 -18.8 -6.1 -17.2 -12.3 0.3 -1.4 3.2 -4.7 6.4 -7.3 13.7 -11.5 18.2 -18 20.8 -30.2 1.8 -8.7 2.9 -98.2 1.7 -137.6 -0.9 -27.2 -1 -28.2 -3.5 -33.7 -5.4 -11.8 -13.7 -12.7 -34.3 -4 -21.3 9 -35.7 12.2 -65 14.2 -17.1 1.2 -23.8 2.7 -30.4 6.7 -5.6 3.5 -10.4 11 -12 18.9 -1.5 7.5 -1.5 68.8 0 77 1.6 9 6 17.1 13.9 25.8 3.9 4.3 7.5 8.9 8.1 10.3 2.4 6.4 -5 11.5 -19.4 13.4 -11 1.4 -61.1 0.6 -67.9 -1.1 -2.6 -0.6 -6.2 -2.1 -8 -3.4 -2.7 -1.8 -3.4 -2.9 -3.6 -6.3 -0.3 -3.7 0.2 -4.7 5 -10.3 12.8 -14.9 15 -19.6 16.8 -35.2 1.4 -11.9 2.1 -164.5 1 -205.3 -1.1 -39.5 -2 -42.9 -15.2 -57.3 -11 -12 -11.9 -16.6 -4 -21.8 6 -4.1 14.5 -4.7 53.1 -3.9 19.6 0.4 50 0.9 67.6 1 35.3 0.2 43.9 1.3 60 7.4 15.7 6.1 25.2 12.6 40.7 28.2 18.5 18.5 20.6 19.3 60.7 23.9 18.1 2 18.9 2 36 0.4 9.7 -0.9 25.3 -1.7 34.6 -1.8 20 -0.1 26.1 1.2 32.6 7.1 8.3 7.5 10.3 15.8 9.7 39.5 -0.3 15.4 -0.5 16.7 -3.1 22 -3.1 6.4 -6.5 8.4 -12.2 7.4 -4.7 -0.9 -9.2 -5.5 -18.5 -19.1 -13.9 -20.3 -25.4 -30.1 -41.9 -35.8 -19.1 -6.7 -35 -2.5 -42.4 11.2 -6 11 -5.9 8.7 -6 134.1 -0.1 102 0 115.4 1.5 122.7 2.9 14.8 8.4 23.4 21.4 33.4 8.7 6.7 10.4 11.6 5.6 16.2 -5.5 5.2 -11.2 6 -50.2 6.3 -19.5 0.1 -38.6 -0.2 -42.4 -0.7z m-81.1 -236.3 c3.3 -0.9 9.4 -3.3 13.5 -5.3 9.9 -4.8 22 -16.7 27.3 -26.9 11.5 -22.2 7.7 -43.4 -7.8 -43.4 -9.5 0.1 -17.8 7 -29.5 24.5 -4 6.1 -8.6 12.7 -10.3 14.8 -3.2 4.1 -9.2 7.7 -13 7.7 -3.8 0 -9 -4.1 -11.5 -9.1 -3.1 -6.2 -4.5 -22.6 -3.2 -37.3 1.1 -13.1 3.8 -19.5 10.6 -25.5 5.6 -4.9 10.6 -6.6 24.8 -8.6 16.5 -2.3 22.3 -5.6 23.2 -13.2 1.5 -12.2 -17.8 -23.9 -41.2 -25 -17.1 -0.9 -27.1 4 -32.5 15.9 -2.2 4.8 -2.4 6.5 -2.2 19.3 0 7.7 0.3 32.5 0.5 55 0.3 36.4 0.6 41.4 2.1 45 2.5 5.5 6.3 9.3 12.2 12.2 4.7 2.3 5.8 2.4 18 2 7.3 -0.3 15.6 -1.2 19 -2.1z"/>
  <path d="M585.8 1839.1 c-5.6 -3.6 -13 -13.3 -22.7 -29.8 -17.5 -29.7 -20.8 -40.5 -22.2 -72.5 -0.5 -12.6 -1 -224.5 -1.1 -506.5 -0.2 -505.1 -0.3 -490.9 3.8 -503.5 1.9 -5.9 8.2 -13 13.9 -15.8 6.2 -3 16.2 -4.2 24.2 -3 10.9 1.8 18.5 6.6 22.5 14.5 3.4 6.5 3.9 9.3 4.9 25 1.1 19.4 2.2 1029.9 1.1 1058.6 -0.8 20.8 -1 21.9 -3.6 27.3 -4.5 9.2 -12.1 11.2 -20.8 5.7z"/>
  <path d="M468.4 1581 c-5.6 -2.3 -11.7 -13.4 -18.4 -34 -4.2 -12.8 -19.8 -75.9 -24.9 -101.3 -5.7 -27.5 -11 -73.2 -11.9 -102.2 -0.4 -11.5 -0.4 -152.8 -0.1 -314 0.5 -256.3 0.7 -293.7 2.1 -298.5 4.1 -15.2 11.8 -21.9 27.6 -24.2 16 -2.3 29.7 2.7 35.9 13.1 4.4 7.4 5.2 11.5 6.4 36.1 1.3 26.4 0.5 730.4 -0.9 778 -1 34.6 -1.9 39.8 -7.2 45.2 -2.9 2.9 -4.9 3.3 -8.6 1.8z"/>
  <path d="M1841 1463.4 c-22.8 -1.1 -40.8 -2.7 -53.4 -4.9 -7.7 -1.4 -23.5 -4.1 -34.9 -6 -33.7 -5.7 -47.5 -9.5 -81.1 -22.2 -42.5 -16 -67.3 -28.7 -104.6 -53.6 -40.2 -26.9 -67.6 -49.8 -102 -85.3 -28 -28.9 -58.3 -72.5 -78.9 -113.4 -23.4 -46.3 -32.1 -68.3 -45 -113.5 -7.2 -25.4 -8.3 -30.2 -11.5 -49.2 -7.1 -41.7 -9.2 -75.2 -8.2 -127.3 0.8 -43 4 -71.5 11.6 -103.6 3.7 -15.4 12.9 -43.3 17.4 -52.8 4.5 -9.2 11.4 -16.7 18.6 -20 15.4 -7 36.5 -5 44.3 4.3 7 8.3 6.4 17.7 -3.2 51.6 -16.2 57.1 -20.7 89.3 -19.8 141 0.7 43 5.9 82.3 16.4 124 8.3 33.1 17.5 59.1 32.8 92.8 19.6 42.8 51.4 91.6 83.1 127.2 23.3 26.1 70.2 62.4 107 82.8 36.3 20 82.3 36.6 130.1 46.7 21.5 4.5 30.5 5.8 57.8 8 38.5 3.1 83.9 2.5 114.5 -1.6 15.7 -2.1 47.4 -8.7 61.7 -12.9 13.2 -3.9 44.4 -14.9 57.1 -20.1 39.6 -16.3 96.2 -52.4 127.9 -81.6 18.1 -16.6 45.5 -46.8 63.7 -70.2 32.4 -41.5 62.7 -104.1 77.1 -158.8 7.3 -28.1 14.2 -69.5 17.6 -106.8 2.9 -32 -2.5 -97.6 -12.2 -147 -12.1 -61.9 -37.7 -125.9 -69.2 -173 -23.6 -35.3 -50.3 -65.5 -82.2 -92.9 -25 -21.6 -38.9 -31.7 -63.5 -46.4 -19.7 -11.8 -63.7 -32.7 -83.5 -39.6 -17.6 -6.3 -87.2 -21.7 -108 -24 -25.4 -2.9 -86.8 -3.1 -769.7 -3.1 -467.4 0 -702.2 -0.3 -708 -1 -12.3 -1.4 -18.6 -4 -24 -9.8 -5.8 -6.2 -8.1 -13 -8.1 -23.7 0 -9.5 1.2 -14.4 5.2 -20.7 4.6 -7.3 11.7 -11 24.3 -12.9 8.2 -1.2 1334.2 -1.1 1417.8 0.1 65.6 0.9 71.1 1.3 106 6.6 20.5 3.1 33.2 6 57.8 13 35.1 10 58.2 18.8 91.4 34.7 25.7 12.3 49.1 26.6 81.8 50.1 38.5 27.6 61.1 48.8 88.5 83.1 33 41.3 49.3 67.4 72.2 115.6 13.3 27.8 16 34.6 24.6 61.9 17.8 56 24.1 86.1 26.6 126.7 4.2 68.4 4.4 74.6 2.7 106.5 -3.4 62.7 -7.8 89.5 -22.6 138.3 -10.1 33.1 -16.8 50 -33 83 -20.6 41.9 -47.4 82.4 -75.8 114.5 -27.9 31.7 -71.7 71 -102.7 92.3 -11.9 8.1 -52.4 31.6 -68.2 39.6 -10.9 5.4 -42.4 18.2 -64.4 26.1 -21.1 7.6 -36.7 11.6 -60.6 15.5 -11.7 2 -28.2 4.8 -36.5 6.4 -8.4 1.6 -21.4 3.4 -28.8 4 -14.2 1.2 -61.3 2.1 -74 1.5z"/>
  <path d="M1821 1337 c-19.3 -1.2 -44.1 -5.3 -63.6 -10.6 -9.3 -2.5 -21.4 -5.6 -26.9 -6.9 -16.5 -3.9 -28.9 -8.2 -51 -17.7 -36.6 -15.8 -48.9 -22.6 -74.5 -41.6 -30.6 -22.7 -49.1 -41.2 -73.5 -73.7 -19.2 -25.6 -34.5 -50.8 -45.1 -74.5 -7.9 -17.7 -24.7 -63.9 -28.7 -79 -18.1 -67.9 -22.3 -137.1 -12.3 -202.5 7.6 -49.3 13.4 -72.3 23.6 -94 6.9 -14.7 14.5 -22.6 25.7 -26.7 4.6 -1.8 8.1 -2.2 17.3 -2.2 10.4 -0.1 12.1 0.2 17.1 2.5 9.9 4.6 13.8 12.8 11.9 24.7 -0.6 3.4 -3.7 13.6 -7 22.7 -3.3 9.1 -7.2 20.4 -8.6 25.2 -7.1 24.6 -15.1 78.7 -16.1 108.9 -0.9 26 2.5 59.7 9.2 92.9 8.3 40.9 22.7 78.4 46.4 120.5 16.3 28.9 32.4 50.3 55.1 73.1 37.1 37.2 85.7 62.6 147 76.7 22 5.1 37.9 7.8 55.1 9.3 18.1 1.6 80.7 0.6 97.4 -1.6 85.6 -11.3 165.3 -59.7 222.4 -135.4 19.8 -26.2 35.6 -54 44.6 -78.6 8.2 -22.3 18.2 -62.7 20.4 -82.5 3.5 -31 3.9 -60.3 1.6 -96.9 -2.2 -33.5 -5.8 -53.6 -16 -89.1 -6.3 -21.7 -11.8 -35.7 -21.4 -54.8 -17.7 -34.8 -35.1 -59 -63 -87.6 -29 -29.6 -53.2 -47.6 -86.4 -64.2 -26.9 -13.6 -70.2 -27 -99.7 -31.1 -11.7 -1.6 -59.7 -1.7 -747.5 -2.3 -660.5 -0.5 -735.6 -0.7 -740.5 -2.1 -8 -2.3 -13.1 -5.2 -17.7 -10.1 -5.4 -6 -7.7 -13 -7.7 -23.8 0 -14 4.4 -23 13.9 -28.5 9.7 -5.8 -43.7 -5.4 740.5 -5.6 745.6 -0.2 733.4 -0.3 765.5 3.6 37.4 4.5 61.9 10.7 95.9 24.2 41.4 16.4 78.8 38.1 108.6 63.2 44.5 37.5 75 75.9 101 127.1 23.6 46.7 36.8 90 44.5 146.5 2.7 19.8 4 68.7 2.7 102.7 -1.3 33.7 -2.5 44.2 -8.2 72.8 -4.5 22.8 -9 38.8 -16.1 57.8 -15.2 40.7 -30.5 67.7 -60.9 108.1 -29.5 39 -71.7 77.3 -114.4 103.8 -10.3 6.4 -46.1 24 -61.1 30.1 -24 9.6 -70.3 21.5 -100.5 25.7 -13.6 1.9 -77.3 2.9 -99 1.5z"/>
  <path d="M1838 1211.9 c-33.5 -1.6 -64.5 -8.7 -106 -24.1 -16.2 -6.1 -21.5 -8.6 -38.8 -19 -25.9 -15.5 -46.6 -33.2 -60.3 -51.5 -8.4 -11.1 -26.1 -39.1 -33.4 -52.8 -11.7 -21.9 -20.2 -44.1 -26.8 -70 -11.6 -45.3 -15.2 -108.9 -8.8 -156 5.5 -40.3 15.8 -78.7 27.1 -101.4 10.2 -20.3 22.9 -29.1 42.5 -29.4 10 -0.2 16.3 1.6 21.4 5.9 8.4 7.2 8.2 16.6 -0.6 39.9 -11.8 31.1 -19.3 60.9 -23.5 94 -6.3 49.4 0.1 107.9 16.8 154.3 5 13.7 13.6 31.7 20.5 42.8 13.1 21.1 34.2 44.1 50.7 55.3 29 19.7 67 33.2 108.2 38.7 15.9 2 59 1.5 74.5 -1 49.1 -7.9 97.3 -36.6 130.2 -77.6 19.4 -24.3 31 -45.1 40.2 -72.5 9.4 -28.1 11.6 -47.1 10.8 -93.2 -0.5 -30.2 -1.3 -37.7 -6.3 -60.1 -5 -22.7 -15.3 -49.1 -25.9 -67 -14.2 -23.8 -41.9 -53.7 -62.5 -67.4 -11.3 -7.5 -33.8 -18.2 -49 -23.2 -14.5 -4.9 -33.8 -8.8 -51.6 -10.5 -8 -0.8 -215 -1.1 -724 -1.1 -483.3 0 -715.8 -0.3 -721.9 -1 -4.9 -0.6 -11.1 -1.7 -13.7 -2.6 -6.4 -2.1 -14 -9.1 -16.9 -15.6 -2.1 -4.7 -2.4 -6.8 -2.4 -17.8 0 -11.4 0.2 -13 2.6 -18 3 -6.4 7.5 -11.2 13 -14 9.8 -5.1 -35.2 -4.8 735.4 -4.6 679.6 0.1 719.7 0.2 731.2 1.9 31.9 4.6 62.4 11.4 83.8 18.7 32.4 11.1 77.1 41 100.8 67.3 32.2 35.8 55 74.7 66.1 112.9 5.3 18.3 11.9 53.5 13.5 71.8 2.9 33.5 2 81.5 -1.9 104.5 -2.8 16.7 -10 45.1 -14.5 57 -5 13.4 -17 37.7 -24.9 50.3 -22.3 35.5 -55 68 -95.1 94.9 -18 12 -29.5 17.3 -58 26.7 -30 9.9 -47.8 13.1 -79 14.6 -20.9 1 -21.4 1 -43.5 -0.1z"/>
 </g>
</svg>