<?xml version="1.0" encoding="iso-8859-1"?>
<!-- Uploaded to: SVG Repo, www.svgrepo.com, Generator: SVG Repo Mixer Tools -->
<!DOCTYPE svg PUBLIC "-//W3C//DTD SVG 1.1//EN" "http://www.w3.org/Graphics/SVG/1.1/DTD/svg11.dtd">
<svg fill="#000000" version="1.1" id="Capa_1" xmlns="http://www.w3.org/2000/svg" xmlns:xlink="http://www.w3.org/1999/xlink" 
	 width="800px" height="800px" viewBox="0 0 30.711 30.711"
	 xml:space="preserve">
<g>
	<path d="M19.008,18.814c1.055-1.071,1.836-2.51,2.301-3.886c0.637-0.262,1.156-0.912,1.354-1.701
		c0.182-0.727,0.608-2.43-0.328-2.955V9.055c0.063-2.158-0.187-4.777-2.664-5.848c-0.197-0.52-0.238-0.977-0.244-1.064L19.215,0
		l-1.523,1.436c-0.498,0.469-2.792,0.922-4.262,1.068l-0.7,0.109c-4.5,0.707-4.437,2.99-4.369,5.412
		C8.369,8.34,8.378,8.672,8.378,9.027l0.033,1.1c-0.673,0.445-0.829,1.5-0.449,3.057c0.193,0.775,0.74,1.43,1.334,1.609
		c0.286,0.793,1.06,2.641,2.407,4.021c-5.605,1.414-9.727,5.98-9.727,11.396v0.5h26.758v-0.5
		C28.736,24.797,24.613,20.229,19.008,18.814z M22.24,29.713v-2.615c0-0.277-0.223-0.5-0.5-0.5c-0.275,0-0.5,0.223-0.5,0.5v2.615
		H9.474v-2.615c0-0.277-0.224-0.5-0.5-0.5c-0.276,0-0.5,0.223-0.5,0.5v2.615H2.992c0.194-3.74,2.563-6.984,6.015-8.805l5.983,6.795
		c0.095,0.105,0.231,0.168,0.375,0.168c0.001,0,0.002,0,0.003,0c0.146,0,0.282-0.064,0.376-0.174l5.856-6.846
		c3.51,1.809,5.926,5.08,6.123,8.858H22.24V29.713z M14.287,20.368l-0.662,0.565l1.083,0.932l-0.79,3.105l-3.974-4.512
		c0.855-0.367,1.763-0.65,2.713-0.838C13.144,19.961,13.686,20.221,14.287,20.368z M18.051,19.624
		c0.912,0.178,1.783,0.446,2.606,0.791l-3.977,4.646l-0.812-3.195l1.083-0.932l-0.63-0.541
		C16.947,20.256,17.523,19.986,18.051,19.624z M10.12,14.014c-0.384,0.082-0.982-0.377-1.157-1.08
		c-0.18-0.715-0.298-1.871,0.092-1.979c0.115-0.033,0.235-0.008,0.355,0.055V9.024c0-3.125-0.705-4.959,4.173-5.481L13.54,3.528
		c0,0,3.847-0.387,4.859-1.342c0,0,0.027,0.805,0.439,1.689c2.25,0.904,2.533,2.988,2.469,5.148v1.987
		c0.117-0.063,0.238-0.09,0.354-0.058c0.389,0.107,0.182,1.31,0.002,2.023c-0.175,0.695-0.677,1.109-1.06,1.037
		c-0.496,1.51-1.474,3.423-2.858,4.54c-0.195,0.156-0.396,0.3-0.607,0.421c-0.33,0.19-0.681,0.327-1.049,0.411
		c-0.237,0.054-0.479,0.089-0.73,0.089c-0.256,0-0.5-0.035-0.74-0.089c-0.372-0.082-0.725-0.219-1.057-0.407
		c-0.212-0.123-0.415-0.267-0.61-0.422C11.575,17.454,10.617,15.559,10.12,14.014z"/>
</g>
</svg>